# xmcd
#
# Track frame offsets: 
#        182
#        19565
#        35315
#        55012
#        76120
#        88612
#        107872
#        119805
#        134630
#        147315
#
# Disc length: 2178 seconds
#
# Revision: 4
# Processed by: cddbd v1.5.2PL0 Copyright (c) Steve Scherf et al.
# Submitted via: ExactAudioCopy v1.1
#
DISCID=8308800a
DTITLE=Warnes, Jennifer - Shot Through the Heart
DYEAR=1979
DGENRE=Pop
TTITLE0=Shot Through the Heart
TTITLE1=I Know a Heartache When I See One
TTITLE2=Don't Make Me Over
TTITLE3=You Remember Me
TTITLE4=Sign on the Window
TTITLE5=I'm Restless
TTITLE6=Tell Me Just One More Time
TTITLE7=When the Feeling Comes Around
TTITLE8=Frankie in the Rain
TTITLE9=Hard Times, Come Again No More
EXTD=YEAR: 1979
EXTT0=
EXTT1=
EXTT2=
EXTT3=
EXTT4=
EXTT5=
EXTT6=
EXTT7=
EXTT8=
EXTT9=
PLAYORDER=
